<svg xmlns="http://www.w3.org/2000/svg" version="1.1" xmlns:xlink="http://www.w3.org/1999/xlink" xmlns:svgjs="http://svgjs.dev/svgjs" width="2000" height="2008" viewBox="0 0 2000 2008"><g transform="matrix(1,0,0,1,-1.9337593088645235,0.8129554655870379)"><svg viewBox="0 0 246 247" data-background-color="#ffffff" preserveAspectRatio="xMidYMid meet" height="2008" width="2000" xmlns="http://www.w3.org/2000/svg" xmlns:xlink="http://www.w3.org/1999/xlink"><g id="tight-bounds" transform="matrix(1,0,0,1,0.23785239499034105,-0.09999999999999432)"><svg viewBox="0 0 245.5242952100193 247.2" height="247.2" width="245.5242952100193"><g><svg viewBox="0 0 245.5242952100193 247.2" height="247.2" width="245.5242952100193"><g><svg viewBox="0 0 279.45511958045904 281.362402450633" height="247.2" width="245.5242952100193"><g><svg viewBox="0 0 279.45511958045904 281.362402450633" height="281.362402450633" width="279.45511958045904"><g><path d="M0 281.362v-281.362h279.455v281.362z" fill="#113f67" stroke="transparent" stroke-width="0" rx="0%" data-fill-palette-color="tertiary"></path><path d="M4.509 276.853v-272.344h270.437v272.344z" fill="#ffffff" stroke="transparent" stroke-width="0" rx="0%" data-fill-palette-color="quaternary"></path><path d="M13.527 267.835v-254.308h252.401v254.308z" fill="#113f67" stroke="transparent" stroke-width="0" data-fill-palette-color="tertiary"></path></g><g transform="matrix(1,0,0,1,27.054309599999996,27.054309599999996)" id="textblocktransform"><svg viewBox="0 0 225.34650038045905 227.25378325063298" height="227.25378325063298" width="225.34650038045905" id="textblock"><g><svg viewBox="0 0 225.34650038045905 138.123848133312" height="138.123848133312" width="225.34650038045905"><g transform="matrix(1,0,0,1,0,0)"><svg width="225.34650038045905" viewBox="3 -27 44.05 27" height="138.123848133312" data-palette-color="#ffffff"><path d="M38.05-27Q42.55-27 44.8-24.43 47.05-21.85 47.05-17.1L47.05-17.1 47.05 0 37.1 0 37.1-15.9Q37.1-17.6 36.27-18.63 35.45-19.65 33.95-19.65L33.95-19.65Q32.2-19.65 31.1-18.45 30-17.25 30-15.5L30-15.5 30 0 20.05 0 20.05-15.9Q20.05-17.6 19.23-18.63 18.4-19.65 16.9-19.65L16.9-19.65Q15.15-19.65 14.05-18.45 12.95-17.25 12.95-15.5L12.95-15.5 12.95 0 3 0 3-26.4 11.15-26.4 11.8-22.45Q13.3-24.55 15.78-25.78 18.25-27 21-27L21-27Q26.95-27 29-22.45L29-22.45Q30.55-24.55 32.98-25.78 35.4-27 38.05-27L38.05-27Z" opacity="1" transform="matrix(1,0,0,1,0,0)" fill="#ffffff" class="wordmark-text-0" data-fill-palette-color="quaternary" id="text-0"></path></svg></g></svg></g><g transform="matrix(1,0,0,1,0,147.14195133331202)"><svg viewBox="0 0 225.34650038045905 80.11183191732096" height="80.11183191732096" width="225.34650038045905"><g transform="matrix(1,0,0,1,0,0)"><svg width="225.34650038045905" viewBox="0.6 -36.4 103.23 36.7" height="80.11183191732096" data-palette-color="#ffffff"><path d="M0.6-24.85L5-24.85 10.4-9.45Q10.75-8.5 11.05-7.6 11.35-6.7 11.65-5.45L11.65-5.45Q11.95-6.65 12.23-7.53 12.5-8.4 12.8-9.25L12.8-9.25 18.25-24.85 22.15-24.85 13.25 0.3 9.45 0.3 0.6-24.85ZM76.13-36.4L82.33-36.4 98.23-11.95Q98.68-11.25 99.18-10.48 99.68-9.7 100.18-9L100.18-9Q100.13-9.85 100.08-10.73 100.03-11.6 100.03-12.4L100.03-12.4 100.03-36.4 103.83-36.4 103.83 0.25 100.88 0.25 82.33-28.15Q81.93-28.8 81.46-29.53 80.98-30.25 80.48-30.9L80.48-30.9Q80.58-30.1 80.61-29.28 80.63-28.45 80.63-27.65L80.63-27.65 80.63 0 76.83 0 76.83-33.1 76.13-36.4Z" opacity="1" transform="matrix(1,0,0,1,0,0)" fill="#ffffff" class="slogan-text-1" data-fill-palette-color="quaternary" id="text-1"></path></svg></g></svg></g></svg></g></svg></g><g></g></svg></g></svg></g><defs></defs></svg><rect width="245.5242952100193" height="247.2" fill="none" stroke="none" visibility="hidden"></rect></g></svg></g></svg>